# xmcd
# 
# Track frame offsets:
#     183
#     13025
#     21570
#     33285
#     47258
#     61940
#     78903
#     95930
#     110240
#     124158
#     136735
# 
# Disc length: 1954
# 
# Revision: 2
# Processed by: cddbd v1.5.2PL0 Copyright (c) Steve Scherf et al.
# Submitted via: fre:ac v1.0.31
# 
DISCID=8f07a00b
DTITLE=The Drifters - Legends In Music - The Drifters
DYEAR=1989
DGENRE=Blues
TTITLE0=Up On The Roof
TTITLE1=The Twist
TTITLE2=Under The Boardwalk
TTITLE3=Please Stay (Don't Go)
TTITLE4=Money Honey
TTITLE5=Some Kind Of Wonderful
TTITLE6=My Girl
TTITLE7=Sand In My Shoes
TTITLE8=This Magic Moment
TTITLE9=I Count The Tears
TTITLE10=Save The Last Dance For Me
EXTD=Live Recordings
EXTT0=
EXTT1=
EXTT2=
EXTT3=
EXTT4=
EXTT5=
EXTT6=
EXTT7=
EXTT8=
EXTT9=
EXTT10=
PLAYORDER=
